<svg width="75px" height="88px" viewBox="0 0 75 88" version="1.1" xmlns="http://www.w3.org/2000/svg" xmlns:xlink="http://www.w3.org/1999/xlink">
    <!-- Generator: Sketch 44.1 (41455) - http://www.bohemiancoding.com/sketch -->
    <desc>Created with Sketch.</desc>
    <defs></defs>
    <g id="Boomtown-Prototypes" stroke="none" stroke-width="1" fill="none" fill-rule="evenodd">
        <g id="Desktop-HD-Copy" transform="translate(-683.000000, -204.000000)" fill="#000">
            <path d="M735.185497,204.749061 C741.388052,205.675146 746.319104,207.534259 749.978728,210.326416 C751.779078,211.700016 753.253996,213.257352 754.403485,214.998429 L721.981716,247.885806 L707.431071,232.503487 L735.185497,204.749061 Z M728.625013,204.136855 L703.944371,228.817497 L694.814499,219.165788 L697.439347,204 L725.33583,204.060252 C726.461425,204.06436 727.557819,204.089894 728.625013,204.136855 Z M683,287.427339 L692.798383,230.814457 L715.329581,254.633474 L683,287.427339 Z M685.724251,291.726306 L718.738839,258.237595 L743.36016,284.266202 C743.111051,284.466827 742.856968,284.663968 742.597909,284.857625 C736.472301,289.436768 728.087373,291.726306 717.442873,291.726306 L685.724251,291.726306 Z M756.621796,219.810601 C757.320344,222.203537 757.576302,224.846374 757.389673,227.739124 C756.787154,236.977746 751.726072,243.52502 742.206274,247.38114 C745.620547,248.586178 748.281632,250.765255 750.189609,253.918437 C752.097585,257.071619 752.910973,260.857389 752.629798,265.275861 C752.336342,269.698656 751.285424,273.590917 749.477028,276.952673 L725.390975,251.489928 L756.621796,219.810601 Z" id="Combined-Shape"></path>
        </g>
    </g>
</svg>